<svg xmlns="http://www.w3.org/2000/svg" viewBox="0 0 64 64">
  <defs>
    <linearGradient id="bg" x1="8" x2="56" y1="6" y2="58" gradientUnits="userSpaceOnUse">
      <stop stop-color="#A7F3D0"/>
      <stop offset=".48" stop-color="#2DD4BF"/>
      <stop offset="1" stop-color="#38BDF8"/>
    </linearGradient>
    <linearGradient id="shine" x1="18" x2="44" y1="12" y2="45" gradientUnits="userSpaceOnUse">
      <stop stop-color="#FFFFFF" stop-opacity=".9"/>
      <stop offset="1" stop-color="#FFFFFF" stop-opacity=".12"/>
    </linearGradient>
  </defs>
  <rect width="64" height="64" rx="14" fill="#071014"/>
  <path d="M11 15.5c0-4.1 3.4-7.5 7.5-7.5h27c4.1 0 7.5 3.4 7.5 7.5v27c0 4.1-3.4 7.5-7.5 7.5h-27c-4.1 0-7.5-3.4-7.5-7.5z" fill="url(#bg)"/>
  <path d="M17.5 17.8 47 11.2 34.9 43.7l-7.1-13.4-10.3-4.7c-2.1-1-2.2-7.2 0-7.8Z" fill="#062322"/>
  <path d="m27.8 30.3 19.2-19.1" stroke="url(#shine)" stroke-width="4" stroke-linecap="round"/>
  <path d="M20.2 47c4.3 4.6 11.2 7.2 18 5.4" stroke="#EFFFFC" stroke-opacity=".75" stroke-width="3" stroke-linecap="round"/>
</svg>
